<mxfile host="app.diagrams.net" modified="2023-11-16T06:56:41.852Z" agent="Mozilla/5.0 (Macintosh; Intel Mac OS X 10.15; rv:109.0) Gecko/20100101 Firefox/119.0" etag="ArjsyTFpcXPmI6JnkVS4" version="22.1.2" type="github">
  <diagram name="Page-1" id="QO5nrSKUmJ0oxcyC5A64">
    <mxGraphModel dx="1834" dy="805" grid="0" gridSize="10" guides="0" tooltips="1" connect="1" arrows="1" fold="1" page="0" pageScale="1" pageWidth="850" pageHeight="1100" math="0" shadow="0">
      <root>
        <mxCell id="0" />
        <mxCell id="1" parent="0" />
        <mxCell id="G24Cj-klKIiopbQmR6XC-1" value="Region" style="points=[[0,0],[0.25,0],[0.5,0],[0.75,0],[1,0],[1,0.25],[1,0.5],[1,0.75],[1,1],[0.75,1],[0.5,1],[0.25,1],[0,1],[0,0.75],[0,0.5],[0,0.25]];outlineConnect=0;gradientColor=none;html=1;whiteSpace=wrap;fontSize=12;fontStyle=0;container=1;pointerEvents=0;collapsible=0;recursiveResize=0;shape=mxgraph.aws4.group;grIcon=mxgraph.aws4.group_region;strokeColor=#00A4A6;fillColor=none;verticalAlign=top;align=left;spacingLeft=30;fontColor=#147EBA;dashed=1;" vertex="1" parent="1">
          <mxGeometry y="90" width="1208" height="680" as="geometry" />
        </mxCell>
        <mxCell id="G24Cj-klKIiopbQmR6XC-2" value="us-east-1" style="text;html=1;strokeColor=none;fillColor=none;align=center;verticalAlign=middle;whiteSpace=wrap;rounded=0;" vertex="1" parent="G24Cj-klKIiopbQmR6XC-1">
          <mxGeometry x="10" y="20" width="100" height="40" as="geometry" />
        </mxCell>
        <mxCell id="G24Cj-klKIiopbQmR6XC-4" value="&lt;em&gt;Public Subnet1&lt;/em&gt;&lt;span&gt;&lt;/span&gt;" style="shape=mxgraph.ibm.box;prType=subnet;fontStyle=0;verticalAlign=top;align=left;spacingLeft=32;spacingTop=4;rounded=0;whiteSpace=wrap;html=1;strokeWidth=1;dashed=0;container=1;spacing=-4;collapsible=0;expand=0;recursiveResize=0;fillColor=#dae8fc;strokeColor=#6c8ebf;" vertex="1" parent="G24Cj-klKIiopbQmR6XC-1">
          <mxGeometry x="70" y="120" width="300" height="110" as="geometry" />
        </mxCell>
        <mxCell id="G24Cj-klKIiopbQmR6XC-95" style="edgeStyle=orthogonalEdgeStyle;rounded=0;orthogonalLoop=1;jettySize=auto;html=1;entryX=0;entryY=0.5;entryDx=0;entryDy=0;dashed=1;fillColor=#e1d5e7;strokeColor=#9673a6;" edge="1" parent="G24Cj-klKIiopbQmR6XC-4" source="G24Cj-klKIiopbQmR6XC-14" target="G24Cj-klKIiopbQmR6XC-91">
          <mxGeometry relative="1" as="geometry">
            <Array as="points">
              <mxPoint x="60" y="25" />
            </Array>
          </mxGeometry>
        </mxCell>
        <mxCell id="G24Cj-klKIiopbQmR6XC-96" style="edgeStyle=orthogonalEdgeStyle;rounded=0;orthogonalLoop=1;jettySize=auto;html=1;entryX=0;entryY=0.5;entryDx=0;entryDy=0;fillColor=#e1d5e7;strokeColor=#9673a6;dashed=1;" edge="1" parent="G24Cj-klKIiopbQmR6XC-4" source="G24Cj-klKIiopbQmR6XC-14" target="G24Cj-klKIiopbQmR6XC-92">
          <mxGeometry relative="1" as="geometry">
            <Array as="points">
              <mxPoint x="60" y="75" />
            </Array>
          </mxGeometry>
        </mxCell>
        <mxCell id="G24Cj-klKIiopbQmR6XC-14" value="" style="sketch=0;outlineConnect=0;fontColor=#232F3E;gradientColor=none;fillColor=#C925D1;strokeColor=none;dashed=0;verticalLabelPosition=bottom;verticalAlign=top;align=center;html=1;fontSize=12;fontStyle=0;aspect=fixed;shape=mxgraph.aws4.cloud9;" vertex="1" parent="G24Cj-klKIiopbQmR6XC-4">
          <mxGeometry x="30" y="30" width="60" height="38.46" as="geometry" />
        </mxCell>
        <mxCell id="G24Cj-klKIiopbQmR6XC-91" value="Customer Microservice" style="text;html=1;strokeColor=none;fillColor=none;align=center;verticalAlign=middle;whiteSpace=wrap;rounded=0;" vertex="1" parent="G24Cj-klKIiopbQmR6XC-4">
          <mxGeometry x="170" y="10" width="60" height="30" as="geometry" />
        </mxCell>
        <mxCell id="G24Cj-klKIiopbQmR6XC-92" value="Employee Microservice" style="text;html=1;strokeColor=none;fillColor=none;align=center;verticalAlign=middle;whiteSpace=wrap;rounded=0;" vertex="1" parent="G24Cj-klKIiopbQmR6XC-4">
          <mxGeometry x="170" y="60" width="60" height="30" as="geometry" />
        </mxCell>
        <mxCell id="G24Cj-klKIiopbQmR6XC-93" value="" style="shape=image;html=1;verticalAlign=top;verticalLabelPosition=bottom;labelBackgroundColor=#ffffff;imageAspect=0;aspect=fixed;image=https://cdn1.iconfinder.com/data/icons/unicons-line-vol-3/24/docker-128.png" vertex="1" parent="G24Cj-klKIiopbQmR6XC-4">
          <mxGeometry x="240" y="6" width="38" height="38" as="geometry" />
        </mxCell>
        <mxCell id="G24Cj-klKIiopbQmR6XC-94" value="" style="shape=image;html=1;verticalAlign=top;verticalLabelPosition=bottom;labelBackgroundColor=#ffffff;imageAspect=0;aspect=fixed;image=https://cdn1.iconfinder.com/data/icons/unicons-line-vol-3/24/docker-128.png" vertex="1" parent="G24Cj-klKIiopbQmR6XC-4">
          <mxGeometry x="240" y="56" width="38" height="38" as="geometry" />
        </mxCell>
        <mxCell id="G24Cj-klKIiopbQmR6XC-86" value="2" style="ellipse;whiteSpace=wrap;html=1;aspect=fixed;strokeWidth=2;fontFamily=Tahoma;spacingBottom=4;spacingRight=2;strokeColor=#d3d3d3;" vertex="1" parent="G24Cj-klKIiopbQmR6XC-4">
          <mxGeometry x="130" y="24" width="20" height="20" as="geometry" />
        </mxCell>
        <mxCell id="G24Cj-klKIiopbQmR6XC-25" value="" style="outlineConnect=0;dashed=0;verticalLabelPosition=bottom;verticalAlign=top;align=center;html=1;shape=mxgraph.aws3.codecommit;fillColor=#759C3E;gradientColor=none;" vertex="1" parent="G24Cj-klKIiopbQmR6XC-1">
          <mxGeometry x="70" y="350" width="40" height="40" as="geometry" />
        </mxCell>
        <mxCell id="G24Cj-klKIiopbQmR6XC-28" style="edgeStyle=orthogonalEdgeStyle;rounded=0;orthogonalLoop=1;jettySize=auto;html=1;" edge="1" parent="G24Cj-klKIiopbQmR6XC-1" source="G24Cj-klKIiopbQmR6XC-14" target="G24Cj-klKIiopbQmR6XC-25">
          <mxGeometry relative="1" as="geometry" />
        </mxCell>
        <mxCell id="G24Cj-klKIiopbQmR6XC-13" style="edgeStyle=orthogonalEdgeStyle;rounded=1;orthogonalLoop=1;jettySize=auto;html=1;exitX=1;exitY=0.5;exitDx=0;exitDy=0;exitPerimeter=0;endArrow=block;endFill=1;strokeColor=#82b366;shape=link;shadow=0;fillColor=#d5e8d4;" edge="1" parent="G24Cj-klKIiopbQmR6XC-1" source="G24Cj-klKIiopbQmR6XC-8" target="G24Cj-klKIiopbQmR6XC-11">
          <mxGeometry relative="1" as="geometry" />
        </mxCell>
        <mxCell id="G24Cj-klKIiopbQmR6XC-38" value="" style="group" vertex="1" connectable="0" parent="G24Cj-klKIiopbQmR6XC-1">
          <mxGeometry x="690" y="320" width="90" height="113" as="geometry" />
        </mxCell>
        <mxCell id="G24Cj-klKIiopbQmR6XC-8" value="" style="outlineConnect=0;dashed=0;verticalLabelPosition=bottom;verticalAlign=top;align=center;html=1;shape=mxgraph.aws3.application_load_balancer;fillColor=#F58534;gradientColor=none;" vertex="1" parent="G24Cj-klKIiopbQmR6XC-38">
          <mxGeometry x="10.5" width="69" height="72" as="geometry" />
        </mxCell>
        <mxCell id="G24Cj-klKIiopbQmR6XC-37" value="Application Load Balancer" style="text;html=1;strokeColor=none;fillColor=none;align=center;verticalAlign=middle;whiteSpace=wrap;rounded=0;" vertex="1" parent="G24Cj-klKIiopbQmR6XC-38">
          <mxGeometry y="83" width="90" height="30" as="geometry" />
        </mxCell>
        <mxCell id="G24Cj-klKIiopbQmR6XC-36" value="" style="group" vertex="1" connectable="0" parent="G24Cj-klKIiopbQmR6XC-1">
          <mxGeometry x="990" y="327" width="60" height="99" as="geometry" />
        </mxCell>
        <mxCell id="G24Cj-klKIiopbQmR6XC-11" value="" style="sketch=0;outlineConnect=0;fontColor=#232F3E;gradientColor=none;fillColor=#8C4FFF;strokeColor=none;dashed=0;verticalLabelPosition=bottom;verticalAlign=top;align=center;html=1;fontSize=12;fontStyle=0;aspect=fixed;pointerEvents=1;shape=mxgraph.aws4.internet_gateway;" vertex="1" parent="G24Cj-klKIiopbQmR6XC-36">
          <mxGeometry x="2" width="58" height="58" as="geometry" />
        </mxCell>
        <mxCell id="G24Cj-klKIiopbQmR6XC-12" value="Internet Gateway" style="text;html=1;strokeColor=none;fillColor=none;align=center;verticalAlign=middle;whiteSpace=wrap;rounded=0;" vertex="1" parent="G24Cj-klKIiopbQmR6XC-36">
          <mxGeometry y="69" width="60" height="30" as="geometry" />
        </mxCell>
        <mxCell id="G24Cj-klKIiopbQmR6XC-3" value="VPC" style="sketch=0;outlineConnect=0;gradientColor=none;html=1;whiteSpace=wrap;fontSize=12;fontStyle=0;shape=mxgraph.aws4.group;grIcon=mxgraph.aws4.group_vpc;strokeColor=#879196;fillColor=none;verticalAlign=top;align=left;spacingLeft=30;fontColor=#879196;dashed=0;" vertex="1" parent="G24Cj-klKIiopbQmR6XC-1">
          <mxGeometry x="20" y="50" width="1000" height="620" as="geometry" />
        </mxCell>
        <mxCell id="G24Cj-klKIiopbQmR6XC-62" value="ECS cluster" style="text;html=1;strokeColor=none;fillColor=none;align=center;verticalAlign=middle;whiteSpace=wrap;rounded=0;" vertex="1" parent="G24Cj-klKIiopbQmR6XC-1">
          <mxGeometry x="470" y="640" width="60" height="30" as="geometry" />
        </mxCell>
        <mxCell id="G24Cj-klKIiopbQmR6XC-63" value="ECR" style="text;html=1;strokeColor=none;fillColor=none;align=center;verticalAlign=middle;whiteSpace=wrap;rounded=0;" vertex="1" parent="G24Cj-klKIiopbQmR6XC-1">
          <mxGeometry x="150" y="249" width="60" height="30" as="geometry" />
        </mxCell>
        <mxCell id="G24Cj-klKIiopbQmR6XC-64" value="&lt;div&gt;CodeCommit&lt;/div&gt;" style="text;html=1;strokeColor=none;fillColor=none;align=center;verticalAlign=middle;whiteSpace=wrap;rounded=0;" vertex="1" parent="G24Cj-klKIiopbQmR6XC-1">
          <mxGeometry x="45" y="396" width="75" height="30" as="geometry" />
        </mxCell>
        <mxCell id="G24Cj-klKIiopbQmR6XC-65" value="CodeDeploy" style="text;html=1;strokeColor=none;fillColor=none;align=center;verticalAlign=middle;whiteSpace=wrap;rounded=0;" vertex="1" parent="G24Cj-klKIiopbQmR6XC-1">
          <mxGeometry x="210" y="325" width="90" height="30" as="geometry" />
        </mxCell>
        <mxCell id="G24Cj-klKIiopbQmR6XC-67" value="CodePipeline" style="text;html=1;strokeColor=none;fillColor=none;align=center;verticalAlign=middle;whiteSpace=wrap;rounded=0;" vertex="1" parent="G24Cj-klKIiopbQmR6XC-1">
          <mxGeometry x="140" y="490" width="60" height="30" as="geometry" />
        </mxCell>
        <mxCell id="G24Cj-klKIiopbQmR6XC-15" value="" style="outlineConnect=0;dashed=0;verticalLabelPosition=bottom;verticalAlign=top;align=center;html=1;shape=mxgraph.aws3.ecr_registry;fillColor=#F58534;gradientColor=none;" vertex="1" parent="G24Cj-klKIiopbQmR6XC-1">
          <mxGeometry x="200" y="270" width="40" height="40" as="geometry" />
        </mxCell>
        <mxCell id="G24Cj-klKIiopbQmR6XC-29" style="edgeStyle=orthogonalEdgeStyle;rounded=0;orthogonalLoop=1;jettySize=auto;html=1;entryX=0.5;entryY=0;entryDx=0;entryDy=0;entryPerimeter=0;" edge="1" parent="G24Cj-klKIiopbQmR6XC-1" source="G24Cj-klKIiopbQmR6XC-14" target="G24Cj-klKIiopbQmR6XC-15">
          <mxGeometry relative="1" as="geometry" />
        </mxCell>
        <mxCell id="G24Cj-klKIiopbQmR6XC-30" value="" style="outlineConnect=0;dashed=0;verticalLabelPosition=bottom;verticalAlign=top;align=center;html=1;shape=mxgraph.aws3.codepipeline;fillColor=#759C3E;gradientColor=none;" vertex="1" parent="G24Cj-klKIiopbQmR6XC-1">
          <mxGeometry x="200" y="410" width="40" height="50" as="geometry" />
        </mxCell>
        <mxCell id="G24Cj-klKIiopbQmR6XC-45" style="edgeStyle=orthogonalEdgeStyle;rounded=0;orthogonalLoop=1;jettySize=auto;html=1;exitX=0.5;exitY=1;exitDx=0;exitDy=0;exitPerimeter=0;" edge="1" parent="G24Cj-klKIiopbQmR6XC-1" source="G24Cj-klKIiopbQmR6XC-15" target="G24Cj-klKIiopbQmR6XC-30">
          <mxGeometry relative="1" as="geometry" />
        </mxCell>
        <mxCell id="G24Cj-klKIiopbQmR6XC-47" style="edgeStyle=orthogonalEdgeStyle;rounded=0;orthogonalLoop=1;jettySize=auto;html=1;entryX=0;entryY=0.5;entryDx=0;entryDy=0;entryPerimeter=0;exitX=0.5;exitY=1;exitDx=0;exitDy=0;exitPerimeter=0;" edge="1" parent="G24Cj-klKIiopbQmR6XC-1" source="G24Cj-klKIiopbQmR6XC-25" target="G24Cj-klKIiopbQmR6XC-30">
          <mxGeometry relative="1" as="geometry">
            <Array as="points">
              <mxPoint x="90" y="435" />
            </Array>
          </mxGeometry>
        </mxCell>
        <mxCell id="G24Cj-klKIiopbQmR6XC-85" value="ssh : 22" style="text;html=1;strokeColor=none;fillColor=none;align=center;verticalAlign=middle;whiteSpace=wrap;rounded=0;" vertex="1" parent="G24Cj-klKIiopbQmR6XC-1">
          <mxGeometry x="10" y="140" width="50" height="20" as="geometry" />
        </mxCell>
        <mxCell id="G24Cj-klKIiopbQmR6XC-84" value="1" style="ellipse;whiteSpace=wrap;html=1;aspect=fixed;strokeWidth=2;fontFamily=Tahoma;spacingBottom=4;spacingRight=2;strokeColor=#d3d3d3;" vertex="1" parent="G24Cj-klKIiopbQmR6XC-1">
          <mxGeometry x="20" y="170" width="20" height="20" as="geometry" />
        </mxCell>
        <mxCell id="G24Cj-klKIiopbQmR6XC-87" value="3" style="ellipse;whiteSpace=wrap;html=1;aspect=fixed;strokeWidth=2;fontFamily=Tahoma;spacingBottom=4;spacingRight=2;strokeColor=#d3d3d3;" vertex="1" parent="G24Cj-klKIiopbQmR6XC-1">
          <mxGeometry x="100" y="307" width="20" height="20" as="geometry" />
        </mxCell>
        <mxCell id="G24Cj-klKIiopbQmR6XC-97" value="4" style="ellipse;whiteSpace=wrap;html=1;aspect=fixed;strokeWidth=2;fontFamily=Tahoma;spacingBottom=4;spacingRight=2;strokeColor=#d3d3d3;" vertex="1" parent="G24Cj-klKIiopbQmR6XC-1">
          <mxGeometry x="230" y="240" width="20" height="20" as="geometry" />
        </mxCell>
        <mxCell id="G24Cj-klKIiopbQmR6XC-98" value="5" style="ellipse;whiteSpace=wrap;html=1;aspect=fixed;strokeWidth=2;fontFamily=Tahoma;spacingBottom=4;spacingRight=2;strokeColor=#d3d3d3;" vertex="1" parent="G24Cj-klKIiopbQmR6XC-1">
          <mxGeometry x="140" y="406" width="20" height="20" as="geometry" />
        </mxCell>
        <mxCell id="G24Cj-klKIiopbQmR6XC-99" value="5" style="ellipse;whiteSpace=wrap;html=1;aspect=fixed;strokeWidth=2;fontFamily=Tahoma;spacingBottom=4;spacingRight=2;strokeColor=#d3d3d3;" vertex="1" parent="G24Cj-klKIiopbQmR6XC-1">
          <mxGeometry x="190" y="350" width="20" height="20" as="geometry" />
        </mxCell>
        <mxCell id="G24Cj-klKIiopbQmR6XC-100" value="6" style="ellipse;whiteSpace=wrap;html=1;aspect=fixed;strokeWidth=2;fontFamily=Tahoma;spacingBottom=4;spacingRight=2;strokeColor=#d3d3d3;" vertex="1" parent="G24Cj-klKIiopbQmR6XC-1">
          <mxGeometry x="270" y="440" width="20" height="20" as="geometry" />
        </mxCell>
        <mxCell id="G24Cj-klKIiopbQmR6XC-101" value="7" style="ellipse;whiteSpace=wrap;html=1;aspect=fixed;strokeWidth=2;fontFamily=Tahoma;spacingBottom=4;spacingRight=2;strokeColor=#d3d3d3;" vertex="1" parent="G24Cj-klKIiopbQmR6XC-1">
          <mxGeometry x="340" y="330" width="20" height="20" as="geometry" />
        </mxCell>
        <mxCell id="G24Cj-klKIiopbQmR6XC-102" value="8" style="ellipse;whiteSpace=wrap;html=1;aspect=fixed;strokeWidth=2;fontFamily=Tahoma;spacingBottom=4;spacingRight=2;strokeColor=#d3d3d3;" vertex="1" parent="G24Cj-klKIiopbQmR6XC-1">
          <mxGeometry x="700" y="285" width="20" height="20" as="geometry" />
        </mxCell>
        <mxCell id="G24Cj-klKIiopbQmR6XC-107" value="" style="group" vertex="1" connectable="0" parent="G24Cj-klKIiopbQmR6XC-1">
          <mxGeometry x="165" y="369" width="96" height="41" as="geometry" />
        </mxCell>
        <mxCell id="G24Cj-klKIiopbQmR6XC-105" value="" style="sketch=0;outlineConnect=0;fontColor=#232F3E;gradientColor=none;fillColor=#DD344C;strokeColor=none;dashed=0;verticalLabelPosition=bottom;verticalAlign=top;align=center;html=1;fontSize=12;fontStyle=0;aspect=fixed;pointerEvents=1;shape=mxgraph.aws4.role;" vertex="1" parent="G24Cj-klKIiopbQmR6XC-107">
          <mxGeometry x="62" y="22" width="33.68" height="19" as="geometry" />
        </mxCell>
        <mxCell id="G24Cj-klKIiopbQmR6XC-106" value="Role Pipelinerole" style="text;html=1;strokeColor=none;fillColor=none;align=center;verticalAlign=middle;whiteSpace=wrap;rounded=0;" vertex="1" parent="G24Cj-klKIiopbQmR6XC-107">
          <mxGeometry width="96" height="30" as="geometry" />
        </mxCell>
        <mxCell id="G24Cj-klKIiopbQmR6XC-108" value="" style="group" vertex="1" connectable="0" parent="G24Cj-klKIiopbQmR6XC-1">
          <mxGeometry x="296" y="246" width="96" height="41" as="geometry" />
        </mxCell>
        <mxCell id="G24Cj-klKIiopbQmR6XC-109" value="" style="sketch=0;outlineConnect=0;fontColor=#232F3E;gradientColor=none;fillColor=#DD344C;strokeColor=none;dashed=0;verticalLabelPosition=bottom;verticalAlign=top;align=center;html=1;fontSize=12;fontStyle=0;aspect=fixed;pointerEvents=1;shape=mxgraph.aws4.role;" vertex="1" parent="G24Cj-klKIiopbQmR6XC-108">
          <mxGeometry x="62" y="22" width="33.68" height="19" as="geometry" />
        </mxCell>
        <mxCell id="G24Cj-klKIiopbQmR6XC-110" value="Role Pipelinerole" style="text;html=1;strokeColor=none;fillColor=none;align=center;verticalAlign=middle;whiteSpace=wrap;rounded=0;" vertex="1" parent="G24Cj-klKIiopbQmR6XC-108">
          <mxGeometry width="96" height="30" as="geometry" />
        </mxCell>
        <mxCell id="G24Cj-klKIiopbQmR6XC-89" style="edgeStyle=orthogonalEdgeStyle;rounded=0;orthogonalLoop=1;jettySize=auto;html=1;" edge="1" parent="1" source="G24Cj-klKIiopbQmR6XC-26" target="G24Cj-klKIiopbQmR6XC-7">
          <mxGeometry relative="1" as="geometry">
            <Array as="points">
              <mxPoint x="300" y="410" />
            </Array>
          </mxGeometry>
        </mxCell>
        <mxCell id="G24Cj-klKIiopbQmR6XC-26" value="" style="outlineConnect=0;dashed=0;verticalLabelPosition=bottom;verticalAlign=top;align=center;html=1;shape=mxgraph.aws3.codedeploy;fillColor=#759C3E;gradientColor=none;" vertex="1" parent="1">
          <mxGeometry x="280" y="440" width="40" height="40" as="geometry" />
        </mxCell>
        <mxCell id="G24Cj-klKIiopbQmR6XC-7" value="ECS - Fargate - Serverless" style="points=[[0,0],[0.25,0],[0.5,0],[0.75,0],[1,0],[1,0.25],[1,0.5],[1,0.75],[1,1],[0.75,1],[0.5,1],[0.25,1],[0,1],[0,0.75],[0,0.5],[0,0.25]];outlineConnect=0;html=1;whiteSpace=wrap;fontSize=12;fontStyle=0;container=1;pointerEvents=0;collapsible=0;recursiveResize=0;shape=mxgraph.aws4.group;grIcon=mxgraph.aws4.group_vpc2;strokeColor=#d79b00;fillColor=#ffe6cc;verticalAlign=top;align=left;spacingLeft=30;dashed=1;" vertex="1" parent="1">
          <mxGeometry x="390" y="180" width="230" height="510" as="geometry" />
        </mxCell>
        <mxCell id="G24Cj-klKIiopbQmR6XC-40" value="" style="group" vertex="1" connectable="0" parent="G24Cj-klKIiopbQmR6XC-7">
          <mxGeometry x="20" y="40" width="190" height="500" as="geometry" />
        </mxCell>
        <mxCell id="G24Cj-klKIiopbQmR6XC-6" value="&lt;div&gt;Public Subnet2 - Green&lt;br&gt;&lt;/div&gt;" style="shape=mxgraph.ibm.box;prType=subnet;fontStyle=0;verticalAlign=top;align=left;spacingLeft=32;spacingTop=4;fillColor=#E6F0E2;rounded=0;whiteSpace=wrap;html=1;strokeColor=#00882B;strokeWidth=1;dashed=0;container=1;spacing=-4;collapsible=0;expand=0;recursiveResize=0;" vertex="1" parent="G24Cj-klKIiopbQmR6XC-40">
          <mxGeometry y="239" width="190" height="160" as="geometry" />
        </mxCell>
        <mxCell id="G24Cj-klKIiopbQmR6XC-57" value="" style="shape=image;html=1;verticalAlign=top;verticalLabelPosition=bottom;labelBackgroundColor=#ffffff;imageAspect=0;aspect=fixed;image=https://cdn1.iconfinder.com/data/icons/unicons-line-vol-3/24/docker-128.png" vertex="1" parent="G24Cj-klKIiopbQmR6XC-6">
          <mxGeometry x="20" y="41" width="50" height="50" as="geometry" />
        </mxCell>
        <mxCell id="G24Cj-klKIiopbQmR6XC-58" value="" style="shape=image;html=1;verticalAlign=top;verticalLabelPosition=bottom;labelBackgroundColor=#ffffff;imageAspect=0;aspect=fixed;image=https://cdn1.iconfinder.com/data/icons/unicons-line-vol-3/24/docker-128.png" vertex="1" parent="G24Cj-klKIiopbQmR6XC-6">
          <mxGeometry x="110" y="41" width="50" height="50" as="geometry" />
        </mxCell>
        <mxCell id="G24Cj-klKIiopbQmR6XC-35" value="&lt;div&gt;Public Subnet1 - Blue&lt;br&gt;&lt;/div&gt;" style="shape=mxgraph.ibm.box;prType=subnet;fontStyle=0;verticalAlign=top;align=left;spacingLeft=32;spacingTop=4;fillColor=#dae8fc;rounded=0;whiteSpace=wrap;html=1;strokeColor=#6c8ebf;strokeWidth=1;dashed=0;container=1;spacing=-4;collapsible=0;expand=0;recursiveResize=0;" vertex="1" parent="G24Cj-klKIiopbQmR6XC-40">
          <mxGeometry width="190" height="190" as="geometry" />
        </mxCell>
        <mxCell id="G24Cj-klKIiopbQmR6XC-49" value="" style="shape=image;html=1;verticalAlign=top;verticalLabelPosition=bottom;labelBackgroundColor=#ffffff;imageAspect=0;aspect=fixed;image=https://cdn1.iconfinder.com/data/icons/social-media-2106/24/social_media_social_media_logo_docker-128.png" vertex="1" parent="G24Cj-klKIiopbQmR6XC-35">
          <mxGeometry x="10" y="40" width="40" height="40" as="geometry" />
        </mxCell>
        <mxCell id="G24Cj-klKIiopbQmR6XC-56" value="&lt;div&gt;Employee&lt;/div&gt;" style="text;html=1;strokeColor=none;fillColor=none;align=center;verticalAlign=middle;whiteSpace=wrap;rounded=0;" vertex="1" parent="G24Cj-klKIiopbQmR6XC-35">
          <mxGeometry x="60" y="158" width="60" height="30" as="geometry" />
        </mxCell>
        <mxCell id="G24Cj-klKIiopbQmR6XC-39" value="" style="outlineConnect=0;dashed=0;verticalLabelPosition=bottom;verticalAlign=top;align=center;html=1;shape=mxgraph.aws3.ecs;fillColor=#F58534;gradientColor=none;" vertex="1" parent="G24Cj-klKIiopbQmR6XC-40">
          <mxGeometry x="60" y="450" width="50" height="50" as="geometry" />
        </mxCell>
        <mxCell id="G24Cj-klKIiopbQmR6XC-52" value="" style="shape=image;html=1;verticalAlign=top;verticalLabelPosition=bottom;labelBackgroundColor=#ffffff;imageAspect=0;aspect=fixed;image=https://cdn1.iconfinder.com/data/icons/social-media-2106/24/social_media_social_media_logo_docker-128.png" vertex="1" parent="G24Cj-klKIiopbQmR6XC-40">
          <mxGeometry x="130" y="40" width="40" height="40" as="geometry" />
        </mxCell>
        <mxCell id="G24Cj-klKIiopbQmR6XC-51" value="" style="shape=image;html=1;verticalAlign=top;verticalLabelPosition=bottom;labelBackgroundColor=#ffffff;imageAspect=0;aspect=fixed;image=https://cdn1.iconfinder.com/data/icons/social-media-2106/24/social_media_social_media_logo_docker-128.png" vertex="1" parent="G24Cj-klKIiopbQmR6XC-40">
          <mxGeometry x="70" y="40" width="40" height="40" as="geometry" />
        </mxCell>
        <mxCell id="G24Cj-klKIiopbQmR6XC-53" value="" style="shape=image;html=1;verticalAlign=top;verticalLabelPosition=bottom;labelBackgroundColor=#ffffff;imageAspect=0;aspect=fixed;image=https://cdn0.iconfinder.com/data/icons/social-media-2104/24/social_media_social_media_logo_docker-128.png" vertex="1" parent="G24Cj-klKIiopbQmR6XC-40">
          <mxGeometry x="66" y="110" width="48" height="48" as="geometry" />
        </mxCell>
        <mxCell id="G24Cj-klKIiopbQmR6XC-55" value="&lt;div&gt;Customer&lt;/div&gt;&lt;div&gt;Scale: 3 desired&lt;br&gt;&lt;/div&gt;" style="text;html=1;strokeColor=none;fillColor=none;align=center;verticalAlign=middle;whiteSpace=wrap;rounded=0;" vertex="1" parent="G24Cj-klKIiopbQmR6XC-40">
          <mxGeometry x="30" y="70" width="120" height="40" as="geometry" />
        </mxCell>
        <mxCell id="G24Cj-klKIiopbQmR6XC-59" value="&lt;div&gt;Employee&lt;/div&gt;" style="text;html=1;strokeColor=none;fillColor=none;align=center;verticalAlign=middle;whiteSpace=wrap;rounded=0;" vertex="1" parent="G24Cj-klKIiopbQmR6XC-40">
          <mxGeometry x="15" y="330" width="60" height="30" as="geometry" />
        </mxCell>
        <mxCell id="G24Cj-klKIiopbQmR6XC-60" value="Customer" style="text;html=1;strokeColor=none;fillColor=none;align=center;verticalAlign=middle;whiteSpace=wrap;rounded=0;" vertex="1" parent="G24Cj-klKIiopbQmR6XC-40">
          <mxGeometry x="100" y="330" width="60" height="30" as="geometry" />
        </mxCell>
        <mxCell id="G24Cj-klKIiopbQmR6XC-103" value="9" style="ellipse;whiteSpace=wrap;html=1;aspect=fixed;strokeWidth=2;fontFamily=Tahoma;spacingBottom=4;spacingRight=2;strokeColor=#d3d3d3;" vertex="1" parent="G24Cj-klKIiopbQmR6XC-40">
          <mxGeometry x="140" y="110" width="20" height="20" as="geometry" />
        </mxCell>
        <mxCell id="G24Cj-klKIiopbQmR6XC-104" value="" style="sketch=0;points=[[0,0,0],[0.25,0,0],[0.5,0,0],[0.75,0,0],[1,0,0],[0,1,0],[0.25,1,0],[0.5,1,0],[0.75,1,0],[1,1,0],[0,0.25,0],[0,0.5,0],[0,0.75,0],[1,0.25,0],[1,0.5,0],[1,0.75,0]];outlineConnect=0;fontColor=#232F3E;fillColor=#C925D1;strokeColor=#ffffff;dashed=0;verticalLabelPosition=bottom;verticalAlign=top;align=center;html=1;fontSize=12;fontStyle=0;aspect=fixed;shape=mxgraph.aws4.resourceIcon;resIcon=mxgraph.aws4.rds;" vertex="1" parent="G24Cj-klKIiopbQmR6XC-40">
          <mxGeometry x="74.5" y="199" width="31" height="31" as="geometry" />
        </mxCell>
        <mxCell id="G24Cj-klKIiopbQmR6XC-44" style="edgeStyle=orthogonalEdgeStyle;rounded=0;orthogonalLoop=1;jettySize=auto;html=1;exitX=1;exitY=0.5;exitDx=0;exitDy=0;exitPerimeter=0;entryX=0.5;entryY=1;entryDx=0;entryDy=0;entryPerimeter=0;" edge="1" parent="1" source="G24Cj-klKIiopbQmR6XC-30" target="G24Cj-klKIiopbQmR6XC-26">
          <mxGeometry relative="1" as="geometry" />
        </mxCell>
        <mxCell id="G24Cj-klKIiopbQmR6XC-68" style="edgeStyle=orthogonalEdgeStyle;rounded=0;orthogonalLoop=1;jettySize=auto;html=1;exitX=0.5;exitY=0;exitDx=0;exitDy=0;exitPerimeter=0;fillColor=#dae8fc;strokeColor=#6c8ebf;" edge="1" parent="1" source="G24Cj-klKIiopbQmR6XC-8" target="G24Cj-klKIiopbQmR6XC-35">
          <mxGeometry relative="1" as="geometry" />
        </mxCell>
        <mxCell id="G24Cj-klKIiopbQmR6XC-70" style="edgeStyle=orthogonalEdgeStyle;rounded=0;orthogonalLoop=1;jettySize=auto;html=1;exitX=0.5;exitY=1;exitDx=0;exitDy=0;exitPerimeter=0;entryX=0.989;entryY=0.525;entryDx=0;entryDy=0;entryPerimeter=0;dashed=1;fillColor=#d5e8d4;strokeColor=#82b366;" edge="1" parent="1" source="G24Cj-klKIiopbQmR6XC-8" target="G24Cj-klKIiopbQmR6XC-6">
          <mxGeometry relative="1" as="geometry" />
        </mxCell>
        <mxCell id="G24Cj-klKIiopbQmR6XC-73" style="edgeStyle=orthogonalEdgeStyle;rounded=0;orthogonalLoop=1;jettySize=auto;html=1;" edge="1" parent="1" source="G24Cj-klKIiopbQmR6XC-71" target="G24Cj-klKIiopbQmR6XC-14">
          <mxGeometry relative="1" as="geometry" />
        </mxCell>
        <mxCell id="G24Cj-klKIiopbQmR6XC-71" value="" style="outlineConnect=0;dashed=0;verticalLabelPosition=bottom;verticalAlign=top;align=center;html=1;shape=mxgraph.aws3.ecs;fillColor=#F58534;gradientColor=none;" vertex="1" parent="1">
          <mxGeometry x="-86" y="228.98" width="52" height="40.5" as="geometry" />
        </mxCell>
        <mxCell id="G24Cj-klKIiopbQmR6XC-72" value="" style="sketch=0;points=[[0,0,0],[0.25,0,0],[0.5,0,0],[0.75,0,0],[1,0,0],[0,1,0],[0.25,1,0],[0.5,1,0],[0.75,1,0],[1,1,0],[0,0.25,0],[0,0.5,0],[0,0.75,0],[1,0.25,0],[1,0.5,0],[1,0.75,0]];outlineConnect=0;fontColor=#232F3E;fillColor=#C925D1;strokeColor=#ffffff;dashed=0;verticalLabelPosition=bottom;verticalAlign=top;align=center;html=1;fontSize=12;fontStyle=0;aspect=fixed;shape=mxgraph.aws4.resourceIcon;resIcon=mxgraph.aws4.rds;" vertex="1" parent="1">
          <mxGeometry x="-80" y="320" width="40" height="40" as="geometry" />
        </mxCell>
        <mxCell id="G24Cj-klKIiopbQmR6XC-74" style="edgeStyle=orthogonalEdgeStyle;rounded=0;orthogonalLoop=1;jettySize=auto;html=1;entryX=0.5;entryY=0;entryDx=0;entryDy=0;entryPerimeter=0;" edge="1" parent="1" source="G24Cj-klKIiopbQmR6XC-71" target="G24Cj-klKIiopbQmR6XC-72">
          <mxGeometry relative="1" as="geometry" />
        </mxCell>
        <mxCell id="G24Cj-klKIiopbQmR6XC-75" style="edgeStyle=orthogonalEdgeStyle;rounded=0;orthogonalLoop=1;jettySize=auto;html=1;entryX=1;entryY=0.5;entryDx=0;entryDy=0;entryPerimeter=0;dashed=1;fillColor=#dae8fc;strokeColor=#6c8ebf;" edge="1" parent="1" source="G24Cj-klKIiopbQmR6XC-14" target="G24Cj-klKIiopbQmR6XC-72">
          <mxGeometry relative="1" as="geometry">
            <Array as="points">
              <mxPoint x="130" y="340" />
            </Array>
          </mxGeometry>
        </mxCell>
        <mxCell id="G24Cj-klKIiopbQmR6XC-77" style="edgeStyle=orthogonalEdgeStyle;rounded=0;orthogonalLoop=1;jettySize=auto;html=1;entryX=0.5;entryY=1;entryDx=0;entryDy=0;entryPerimeter=0;fillColor=#dae8fc;strokeColor=#6c8ebf;dashed=1;" edge="1" parent="1" source="G24Cj-klKIiopbQmR6XC-15" target="G24Cj-klKIiopbQmR6XC-72">
          <mxGeometry relative="1" as="geometry" />
        </mxCell>
      </root>
    </mxGraphModel>
  </diagram>
</mxfile>
